<svg xmlns="http://www.w3.org/2000/svg" fill="none" viewBox="0 0 180 60" class="logo-light pressed-link w-auto" desc="NordicFuzzCon logo light" style="height:60px;" data-v-e9225dfb=""><g clip-path="url(#i700686878__a)"><path fill="#64B3E8" fill-rule="evenodd" d="M45.943 39.116a8.158 8.158 0 0 0-.706-.363c1.752-1.233 3.026-2.616 2.745-3.102-.33-.572-2.806.096-5.082 1.34V23.01c2.276 1.244 4.749 1.912 5.078 1.34.28-.484-.982-1.858-2.722-3.087a8.18 8.18 0 0 0 .698-.36c3.544-2.046 6.358-5.355 6.047-5.893-.31-.538-4.584.244-8.127 2.29-.239.137-.46.281-.668.43-.192-2.134-.753-3.929-1.314-3.929-.66 0-1.32 2.478-1.38 5.071l-12.11-6.991c2.215-1.348 4.03-3.156 3.7-3.727-.28-.484-2.1-.078-4.035.814.024-.251.037-.513.037-.785 0-4.091-1.46-8.183-2.08-8.183-.622 0-2.081 4.092-2.081 8.183 0 .275.014.54.038.793-1.943-.9-3.778-1.312-4.06-.826-.329.571 1.488 2.382 3.704 3.73l-12.11 6.99c-.06-2.59-.719-5.066-1.378-5.065-.559 0-1.118 1.78-1.313 3.901a8.182 8.182 0 0 0-.66-.425c-3.545-2.046-7.82-2.828-8.13-2.29-.31.537 2.504 3.847 6.049 5.893.238.138.474.258.706.364-1.752 1.232-3.026 2.615-2.745 3.102.33.57 2.806-.097 5.081-1.34v13.979c-2.275-1.244-4.748-1.91-5.077-1.34-.28.484.982 1.859 2.723 3.088-.23.104-.463.224-.699.36-3.544 2.046-6.36 5.356-6.049 5.894.311.538 4.585-.245 8.13-2.291.238-.138.46-.282.667-.43.192 2.133.753 3.928 1.314 3.928.66 0 1.32-2.478 1.38-5.07l12.109 6.99c-2.215 1.347-4.03 3.156-3.7 3.726.28.484 2.1.079 4.035-.813a8.17 8.17 0 0 0-.037.784C23.92 55.908 25.38 60 26 60c.622 0 2.081-4.092 2.081-8.185a8.2 8.2 0 0 0-.038-.792c1.943.9 3.778 1.311 4.059.825.33-.571-1.486-2.381-3.702-3.73l12.11-6.99c.06 2.592.718 5.069 1.377 5.068.56 0 1.119-1.78 1.313-3.901.206.146.425.288.661.425 3.544 2.045 7.817 2.828 8.128 2.29.31-.538-2.503-3.848-6.047-5.894Zm-4.578-.254-15.352 8.862-15.352-8.862V21.137l15.352-8.863 15.352 8.863v17.725Z" clip-rule="evenodd"></path><path fill="#64B3E8" fill-rule="evenodd" d="m12.28 22.073 13.732-7.927 13.732 7.927v15.854l-13.732 7.926-13.731-7.926V22.073Zm6.138 13.884c0-2.438 2.926-8.067 7.62-8.067 4.693 0 7.588 5.602 7.588 8.075 0 2.473-1.724 4.097-7.584 4.097-5.854 0-7.624-1.666-7.624-4.105ZM25.19 25.02c-.509 1.438-1.505 2.076-2.241 2.179-.736.103-1.87-.236-2.757-1.478-1.608-2.253-.593-5.214 1.768-5.546 2.36-.33 4.154 2.237 3.23 4.845Zm-10.121.487c2.064-1.192 4.69.517 4.81 3.281.066 1.524-.619 2.49-1.263 2.86-.643.372-1.822.482-3.11-.337-2.334-1.486-2.502-4.613-.437-5.804Zm17.078 3.28c.12-2.765 2.743-4.473 4.807-3.28 2.064 1.192 1.897 4.319-.437 5.805-1.286.82-2.465.71-3.108.337-.643-.371-1.328-1.337-1.262-2.861Zm-.332-3.065c-.886 1.242-2.02 1.58-2.755 1.477-.736-.104-1.733-.742-2.243-2.18-.924-2.61.868-5.176 3.229-4.844 2.36.332 3.377 3.294 1.77 5.547Z" clip-rule="evenodd"></path><path fill="#fff" d="M66.418 23.747c.284 0 .515.1.692.298.178.2.266.448.266.747v10.883c0 .323-.106.597-.319.821a1.007 1.007 0 0 1-.763.317 1.72 1.72 0 0 1-.496-.074.741.741 0 0 1-.337-.243l-6.51-8.699v7.971c0 .299-.095.548-.284.747-.177.199-.414.298-.71.298a.883.883 0 0 1-.69-.298 1.081 1.081 0 0 1-.267-.747V24.885c0-.323.1-.59.301-.802.213-.224.474-.336.781-.336.177 0 .349.037.514.112a.844.844 0 0 1 .39.298l6.457 8.662v-8.027c0-.299.089-.548.266-.747.19-.199.426-.298.71-.298ZM78.983 31.83c0 .995-.213 1.89-.639 2.687a4.633 4.633 0 0 1-1.756 1.83 4.67 4.67 0 0 1-2.43.653 4.703 4.703 0 0 1-2.448-.653 4.673 4.673 0 0 1-1.738-1.83c-.425-.796-.638-1.692-.638-2.688 0-.995.212-1.885.638-2.669.426-.796 1.005-1.412 1.739-1.848a4.602 4.602 0 0 1 2.447-.672 4.57 4.57 0 0 1 2.43.672 4.602 4.602 0 0 1 1.756 1.848c.426.784.639 1.674.639 2.67Zm-2.129 0c0-.61-.124-1.152-.372-1.625a2.67 2.67 0 0 0-.976-1.12 2.42 2.42 0 0 0-1.348-.392c-.496 0-.952.131-1.365.392-.403.262-.728.635-.976 1.12-.237.473-.355 1.015-.355 1.624 0 .61.118 1.151.355 1.624.248.473.573.84.976 1.102.413.261.869.392 1.365.392.497 0 .946-.131 1.348-.392.414-.262.74-.629.976-1.102.248-.473.372-1.014.372-1.624ZM85.692 26.64c.355 0 .65.106.887.317.248.212.373.46.373.747 0 .386-.095.678-.284.877a.927.927 0 0 1-.674.28c-.178 0-.379-.043-.603-.13a5.934 5.934 0 0 0-.249-.075 1.293 1.293 0 0 0-.39-.056c-.307 0-.603.1-.887.299-.284.199-.52.504-.71.914-.177.399-.265.878-.265 1.438v4.424c0 .323-.1.597-.302.821a1.007 1.007 0 0 1-.763.317c-.307 0-.561-.105-.762-.317a1.185 1.185 0 0 1-.302-.821v-7.71c0-.323.1-.59.302-.802a.98.98 0 0 1 .762-.336.98.98 0 0 1 .763.336c.201.211.302.479.302.802v.243c.272-.51.662-.896 1.17-1.157a3.39 3.39 0 0 1 1.632-.411ZM95.734 23c.307 0 .562.106.763.317.2.212.301.486.301.822v11.536c0 .323-.1.597-.302.821a1.007 1.007 0 0 1-.762.317c-.308 0-.562-.105-.763-.317-.19-.212-.29-.48-.301-.803-.296.361-.698.672-1.207.934a3.476 3.476 0 0 1-1.578.373 3.948 3.948 0 0 1-2.217-.653c-.663-.448-1.189-1.064-1.579-1.848-.378-.784-.568-1.674-.568-2.67 0-.995.19-1.885.568-2.669.378-.796.893-1.412 1.543-1.848a3.812 3.812 0 0 1 2.182-.672c.568 0 1.1.112 1.596.336.497.212.917.485 1.26.821V24.14c0-.324.1-.591.301-.803a.98.98 0 0 1 .763-.336ZM92.15 34.947c.769 0 1.395-.293 1.88-.878.485-.597.727-1.344.727-2.24 0-.896-.242-1.642-.727-2.24-.485-.597-1.112-.896-1.88-.896-.757 0-1.378.299-1.862.896-.485.598-.728 1.344-.728 2.24 0 .896.237 1.643.71 2.24.484.585 1.111.878 1.88.878ZM101.109 35.675c0 .323-.1.597-.301.821a1.008 1.008 0 0 1-.763.317c-.308 0-.562-.105-.763-.317a1.186 1.186 0 0 1-.301-.821v-7.71c0-.323.1-.59.301-.802a.98.98 0 0 1 .763-.336c.307 0 .562.112.763.336.201.211.301.479.301.802v7.71Zm-1.082-10.062c-.402 0-.686-.068-.851-.205-.166-.137-.249-.38-.249-.728v-.355c0-.348.09-.59.266-.728.178-.137.462-.205.852-.205.414 0 .703.068.869.205.166.137.248.38.248.728v.355c0 .36-.088.61-.266.747-.165.124-.455.186-.869.186ZM107.429 26.64c1.006 0 1.816.168 2.43.504.615.324.923.76.923 1.307 0 .273-.077.516-.231.728a.727.727 0 0 1-.603.298c-.189 0-.343-.025-.461-.074a2.803 2.803 0 0 1-.355-.224c-.106-.1-.213-.18-.319-.243a2.153 2.153 0 0 0-.532-.168 2.658 2.658 0 0 0-.55-.075c-.887 0-1.585.293-2.093.878-.497.572-.745 1.325-.745 2.258 0 .896.254 1.643.763 2.24.508.585 1.158.878 1.951.878.579 0 1.011-.075 1.295-.224.071-.038.165-.1.283-.187.13-.1.249-.174.355-.224a.92.92 0 0 1 .39-.075c.296 0 .527.1.692.299.177.2.266.454.266.765 0 .299-.165.579-.496.84-.332.262-.769.473-1.313.635a6.54 6.54 0 0 1-1.738.224c-.911 0-1.715-.224-2.413-.672-.685-.448-1.218-1.064-1.596-1.848-.378-.796-.568-1.68-.568-2.65 0-1.009.196-1.905.586-2.689.402-.784.958-1.393 1.667-1.829.71-.448 1.514-.672 2.412-.672ZM114.82 25.893v3.286h3.831c.307 0 .562.105.763.317.212.2.319.46.319.784 0 .274-.107.516-.319.728a1.008 1.008 0 0 1-.763.317h-3.831v4.35c0 .323-.113.597-.337.821a1.044 1.044 0 0 1-.763.317c-.331 0-.603-.105-.816-.317-.201-.212-.302-.485-.302-.821v-10.79c0-.323.101-.59.302-.802.213-.224.473-.336.78-.336h5.765c.308 0 .562.105.763.317.213.2.319.46.319.784a.998.998 0 0 1-.319.728 1.007 1.007 0 0 1-.763.317h-4.629ZM129.167 26.827c.307 0 .562.112.763.336.201.211.301.479.301.802v4.742c0 1.344-.355 2.395-1.064 3.154-.698.76-1.697 1.139-2.998 1.139-1.3 0-2.3-.38-2.997-1.139-.698-.759-1.047-1.81-1.047-3.154v-4.742c0-.323.101-.59.302-.802a.98.98 0 0 1 .762-.336.98.98 0 0 1 .763.336c.201.211.302.479.302.802v4.742c0 .759.159 1.325.479 1.698.319.361.798.542 1.436.542.651 0 1.136-.18 1.455-.542.319-.373.479-.94.479-1.698v-4.742c0-.323.1-.59.301-.802a.982.982 0 0 1 .763-.336ZM138.584 34.76c.284 0 .52.1.709.299.19.186.284.429.284.728 0 .286-.094.529-.284.728a.936.936 0 0 1-.709.298h-5.711a.918.918 0 0 1-.692-.298 1.028 1.028 0 0 1-.266-.672c0-.212.023-.386.071-.523.047-.15.136-.317.266-.504l4.221-5.75h-3.441c-.284 0-.52-.099-.709-.298-.19-.2-.284-.448-.284-.747 0-.286.094-.522.284-.709a.937.937 0 0 1 .709-.299h5.463c.26 0 .479.1.657.299a.955.955 0 0 1 .283.71c0 .186-.017.348-.053.485a1.469 1.469 0 0 1-.248.448l-4.257 5.805h3.707ZM147.175 34.76c.284 0 .521.1.71.299.189.186.284.429.284.728 0 .286-.095.529-.284.728a.939.939 0 0 1-.71.298h-5.711a.92.92 0 0 1-.692-.298c-.177-.212-.266-.436-.266-.672 0-.212.024-.386.071-.523.047-.15.136-.317.266-.504l4.222-5.75h-3.441a.939.939 0 0 1-.71-.298 1.042 1.042 0 0 1-.284-.747c0-.286.095-.522.284-.709a.939.939 0 0 1 .71-.299h5.463c.26 0 .479.1.656.299a.955.955 0 0 1 .284.71c0 .186-.018.348-.053.485a1.497 1.497 0 0 1-.249.448l-4.257 5.805h3.707ZM158.587 24.381c.367.2.55.517.55.952 0 .262-.089.517-.266.766-.189.261-.432.392-.727.392a1.23 1.23 0 0 1-.603-.168 4.187 4.187 0 0 0-1.88-.43c-.828 0-1.549.187-2.164.56a3.585 3.585 0 0 0-1.419 1.55c-.331.66-.497 1.418-.497 2.277 0 1.468.372 2.582 1.117 3.341.757.76 1.745 1.139 2.963 1.139.721 0 1.348-.143 1.88-.43.213-.099.402-.149.567-.149.308 0 .568.137.781.411.177.236.266.492.266.765 0 .2-.047.38-.142.542a.944.944 0 0 1-.408.373 6.232 6.232 0 0 1-2.944.728c-1.159 0-2.223-.255-3.193-.765-.97-.523-1.744-1.288-2.324-2.296-.579-1.008-.869-2.228-.869-3.659 0-1.27.272-2.408.816-3.416a6.013 6.013 0 0 1 2.288-2.352c.97-.572 2.064-.859 3.282-.859 1.052 0 2.028.243 2.926.728ZM169.956 31.83c0 .995-.213 1.89-.638 2.687a4.635 4.635 0 0 1-1.756 1.83 4.674 4.674 0 0 1-2.43.653 4.702 4.702 0 0 1-2.448-.653 4.668 4.668 0 0 1-1.738-1.83c-.426-.796-.639-1.692-.639-2.688 0-.995.213-1.885.639-2.669.425-.796 1.005-1.412 1.738-1.848a4.602 4.602 0 0 1 2.448-.672c.886 0 1.696.224 2.43.672a4.604 4.604 0 0 1 1.756 1.848c.425.784.638 1.674.638 2.67Zm-2.128 0c0-.61-.125-1.152-.373-1.625a2.671 2.671 0 0 0-.975-1.12 2.422 2.422 0 0 0-1.348-.392c-.497 0-.952.131-1.366.392-.402.262-.727.635-.976 1.12-.236.473-.355 1.015-.355 1.624 0 .61.119 1.151.355 1.624.249.473.574.84.976 1.102.414.261.869.392 1.366.392.496 0 .946-.131 1.348-.392.413-.262.739-.629.975-1.102.248-.473.373-1.014.373-1.624ZM176.807 26.64c1.206 0 2.04.38 2.501 1.139.461.746.692 1.785.692 3.117v4.779c0 .323-.101.597-.302.821a1.006 1.006 0 0 1-.762.317c-.308 0-.562-.105-.763-.317a1.185 1.185 0 0 1-.301-.821v-4.779c0-.684-.136-1.22-.408-1.605-.272-.399-.739-.598-1.402-.598-.686 0-1.224.212-1.614.635-.39.41-.585.933-.585 1.568v4.779c0 .323-.101.597-.302.821a1.006 1.006 0 0 1-.762.317c-.308 0-.562-.105-.763-.317a1.186 1.186 0 0 1-.302-.821v-7.71c0-.323.101-.59.302-.802a.98.98 0 0 1 .763-.336.98.98 0 0 1 .762.336c.201.211.302.479.302.802v.318a4.404 4.404 0 0 1 1.241-1.158 3.166 3.166 0 0 1 1.703-.485Z"></path></g><defs><clipPath id="i700686878__a"><path fill="#fff" d="M0 0h180v60H0z"></path></clipPath></defs></svg>